<?xml version="1.0" encoding="UTF-8"?>
<svg id="Ebene_2" data-name="Ebene 2" xmlns="http://www.w3.org/2000/svg" viewBox="0 0 212.57 212.57">
  <defs>
    <style>
      .cls-1 {
        fill: #e0e0e0;
      }

      .cls-2 {
        fill: #68b42e;
      }

      .cls-3 {
        fill: #bacf1f;
      }

      .cls-4 {
        fill: #4e7d2f;
      }
    </style>
  </defs>
  <g id="Ebene_1-2" data-name="Ebene 1">
    <rect class="cls-3" width="212.57" height="212.57"/>
    <g>
      <path class="cls-2" d="M161.01,95.72h-3.03c-1.56-7-3.65-13.52-6.27-19.43,3.65-6.53,7.94-16.52,9.26-29.39.44-4.27-3.26-7.94-7.52-7.46-10.32,1.16-18.57,4.44-24.68,7.72-7.31-4.96-15.45-7.76-24.08-7.76s-16.77,2.79-24.08,7.76c-6.13-3.28-14.36-6.55-24.68-7.72-4.26-.48-7.96,3.19-7.52,7.46,1.32,12.86,5.61,22.86,9.25,29.39-2.61,5.91-4.71,12.43-6.27,19.43h-3.03c-7.78,0-14.08,6.3-14.08,14.08s6.3,14.08,14.08,14.08c0,35,25.22,42.24,56.32,42.24s56.32-7.24,56.32-42.24c7.78,0,14.08-6.3,14.08-14.08s-6.3-14.08-14.08-14.08Z"/>
      <path class="cls-1" d="M108.26,105.18c-1.77,2.42-5.36,2.42-7.14,0-1.75-2.38-3.47-4.98-3.47-5.94,0-1.94,3.15-3.52,7.04-3.52s7.04,1.58,7.04,3.52c0,.96-1.72,3.56-3.47,5.94Z"/>
      <circle class="cls-1" cx="129.33" cy="85.16" r="10.56"/>
      <circle class="cls-1" cx="80.05" cy="85.16" r="10.56"/>
      <circle class="cls-4" cx="146.93" cy="152.04" r="21.12"/>
      <circle class="cls-4" cx="62.45" cy="152.04" r="21.12"/>
    </g>
  </g>
</svg>