<?xml version="1.0" encoding="UTF-8"?>
<svg id="Ebene_2" data-name="Ebene 2" xmlns="http://www.w3.org/2000/svg" viewBox="0 0 140.8 133.76">
  <defs>
    <style>
      .cls-1 {
        fill: #fec700;
      }

      .cls-2 {
        fill: #e0e0e0;
      }

      .cls-3 {
        fill: #68b42e;
      }
    </style>
  </defs>
  <g id="Ebene_1-2" data-name="Ebene 1">
    <g>
      <path class="cls-3" d="M126.72,56.32h-3.03c-1.56-7-3.65-13.52-6.27-19.43,3.65-6.53,7.94-16.52,9.26-29.39.44-4.27-3.26-7.94-7.52-7.46-10.32,1.16-18.57,4.44-24.68,7.72-7.31-4.96-15.45-7.76-24.08-7.76s-16.77,2.79-24.08,7.76C40.2,4.48,31.96,1.2,21.64.04c-4.26-.48-7.96,3.19-7.52,7.46,1.32,12.86,5.61,22.86,9.25,29.39-2.61,5.91-4.71,12.43-6.27,19.43h-3.03c-7.78,0-14.08,6.3-14.08,14.08s6.3,14.08,14.08,14.08c0,35,25.22,42.24,56.32,42.24s56.32-7.24,56.32-42.24c7.78,0,14.08-6.3,14.08-14.08s-6.3-14.08-14.08-14.08Z"/>
      <path class="cls-2" d="M73.97,65.78c-1.77,2.42-5.36,2.42-7.14,0-1.75-2.38-3.47-4.98-3.47-5.94,0-1.94,3.15-3.52,7.04-3.52s7.04,1.58,7.04,3.52c0,.96-1.72,3.56-3.47,5.94Z"/>
      <circle class="cls-2" cx="95.04" cy="45.76" r="10.56"/>
      <circle class="cls-2" cx="45.76" cy="45.76" r="10.56"/>
      <circle class="cls-1" cx="112.64" cy="112.64" r="21.12"/>
      <circle class="cls-1" cx="28.16" cy="112.64" r="21.12"/>
    </g>
  </g>
</svg>